<svg xmlns="http://www.w3.org/2000/svg" viewBox="0 0 48 48">
  <defs>
    <linearGradient id="instagram-gradient" x1="8" x2="40" y1="40" y2="8" gradientUnits="userSpaceOnUse">
      <stop stop-color="#feda75" />
      <stop offset="0.25" stop-color="#fa7e1e" />
      <stop offset="0.5" stop-color="#d62976" />
      <stop offset="0.75" stop-color="#962fbf" />
      <stop offset="1" stop-color="#4f5bd5" />
    </linearGradient>
  </defs>
  <rect width="48" height="48" rx="12" fill="url(#instagram-gradient)" />
  <path
    fill="#fff"
    d="M24 16.6a7.4 7.4 0 1 0 0 14.8 7.4 7.4 0 0 0 0-14.8Zm0 12.2a4.8 4.8 0 1 1 0-9.6 4.8 4.8 0 0 1 0 9.6Zm8.8-12.5a1.8 1.8 0 1 1-3.6 0 1.8 1.8 0 0 1 3.6 0Z"
  />
  <path
    fill="#fff"
    fill-rule="evenodd"
    d="M15.7 9.6h16.6a6.1 6.1 0 0 1 6.1 6.1v16.6a6.1 6.1 0 0 1-6.1 6.1H15.7a6.1 6.1 0 0 1-6.1-6.1V15.7a6.1 6.1 0 0 1 6.1-6.1Zm0 2.8a3.3 3.3 0 0 0-3.3 3.3v16.6a3.3 3.3 0 0 0 3.3 3.3h16.6a3.3 3.3 0 0 0 3.3-3.3V15.7a3.3 3.3 0 0 0-3.3-3.3H15.7Z"
    clip-rule="evenodd"
  />
</svg>
